<?xml version="1.0" encoding="UTF-8" standalone="no"?><svg xmlns="http://www.w3.org/2000/svg" xmlns:xlink="http://www.w3.org/1999/xlink" contentScriptType="application/ecmascript" contentStyleType="text/css" height="368px" preserveAspectRatio="none" style="width:401px;height:368px;" version="1.1" viewBox="0 0 401 368" width="401px" zoomAndPan="magnify"><defs><filter height="300%" id="fobzbo4o72yb6" width="300%" x="-1" y="-1"><feGaussianBlur result="blurOut" stdDeviation="2.0"/><feColorMatrix in="blurOut" result="blurOut2" type="matrix" values="0 0 0 0 0 0 0 0 0 0 0 0 0 0 0 0 0 0 .4 0"/><feOffset dx="4.0" dy="4.0" in="blurOut2" result="blurOut3"/><feBlend in="SourceGraphic" in2="blurOut3" mode="normal"/></filter></defs><g><rect fill="#FFFFFF" filter="url(#fobzbo4o72yb6)" height="145.6641" style="stroke: #A80036; stroke-width: 1.0;" width="10" x="95" y="117.2969"/><rect fill="#FFFFFF" filter="url(#fobzbo4o72yb6)" height="87.3984" style="stroke: #A80036; stroke-width: 1.0;" width="10" x="236" y="146.4297"/><rect fill="#FFFFFF" filter="url(#fobzbo4o72yb6)" height="29.1328" style="stroke: #A80036; stroke-width: 1.0;" width="10" x="345.5" y="175.5625"/><line style="stroke: #A80036; stroke-width: 1.0; stroke-dasharray: 5.0,5.0;" x1="27" x2="27" y1="86.2969" y2="281.0938"/><line style="stroke: #A80036; stroke-width: 1.0; stroke-dasharray: 5.0,5.0;" x1="100" x2="100" y1="86.2969" y2="281.0938"/><line style="stroke: #A80036; stroke-width: 1.0; stroke-dasharray: 5.0,5.0;" x1="241" x2="241" y1="86.2969" y2="281.0938"/><line style="stroke: #A80036; stroke-width: 1.0; stroke-dasharray: 5.0,5.0;" x1="350" x2="350" y1="86.2969" y2="281.0938"/><text fill="#000000" font-family="sans-serif" font-size="14" lengthAdjust="spacingAndGlyphs" textLength="32" x="8" y="82.9951">User</text><ellipse cx="27" cy="13" fill="#FEFECE" filter="url(#fobzbo4o72yb6)" rx="8" ry="8" style="stroke: #A80036; stroke-width: 2.0;"/><path d="M27,21 L27,48 M14,29 L40,29 M27,48 L14,63 M27,48 L40,63 " fill="#FEFECE" filter="url(#fobzbo4o72yb6)" style="stroke: #A80036; stroke-width: 2.0;"/><text fill="#000000" font-family="sans-serif" font-size="14" lengthAdjust="spacingAndGlyphs" textLength="32" x="8" y="293.0889">User</text><ellipse cx="27" cy="306.3906" fill="#FEFECE" filter="url(#fobzbo4o72yb6)" rx="8" ry="8" style="stroke: #A80036; stroke-width: 2.0;"/><path d="M27,314.3906 L27,341.3906 M14,322.3906 L40,322.3906 M27,341.3906 L14,356.3906 M27,341.3906 L40,356.3906 " fill="#FEFECE" filter="url(#fobzbo4o72yb6)" style="stroke: #A80036; stroke-width: 2.0;"/><rect fill="#FEFECE" filter="url(#fobzbo4o72yb6)" height="30.2969" style="stroke: #A80036; stroke-width: 1.5;" width="84" x="56" y="51"/><text fill="#000000" font-family="sans-serif" font-size="14" lengthAdjust="spacingAndGlyphs" textLength="70" x="63" y="70.9951">First Class</text><rect fill="#FEFECE" filter="url(#fobzbo4o72yb6)" height="30.2969" style="stroke: #A80036; stroke-width: 1.5;" width="84" x="56" y="280.0938"/><text fill="#000000" font-family="sans-serif" font-size="14" lengthAdjust="spacingAndGlyphs" textLength="70" x="63" y="300.0889">First Class</text><rect fill="#FEFECE" filter="url(#fobzbo4o72yb6)" height="30.2969" style="stroke: #A80036; stroke-width: 1.5;" width="108" x="185" y="51"/><text fill="#000000" font-family="sans-serif" font-size="14" lengthAdjust="spacingAndGlyphs" textLength="94" x="192" y="70.9951">Second Class</text><rect fill="#FEFECE" filter="url(#fobzbo4o72yb6)" height="30.2969" style="stroke: #A80036; stroke-width: 1.5;" width="108" x="185" y="280.0938"/><text fill="#000000" font-family="sans-serif" font-size="14" lengthAdjust="spacingAndGlyphs" textLength="94" x="192" y="300.0889">Second Class</text><rect fill="#FEFECE" filter="url(#fobzbo4o72yb6)" height="30.2969" style="stroke: #A80036; stroke-width: 1.5;" width="83" x="307" y="51"/><text fill="#000000" font-family="sans-serif" font-size="14" lengthAdjust="spacingAndGlyphs" textLength="69" x="314" y="70.9951">Last Class</text><rect fill="#FEFECE" filter="url(#fobzbo4o72yb6)" height="30.2969" style="stroke: #A80036; stroke-width: 1.5;" width="83" x="307" y="280.0938"/><text fill="#000000" font-family="sans-serif" font-size="14" lengthAdjust="spacingAndGlyphs" textLength="69" x="314" y="300.0889">Last Class</text><rect fill="#FFFFFF" filter="url(#fobzbo4o72yb6)" height="145.6641" style="stroke: #A80036; stroke-width: 1.0;" width="10" x="95" y="117.2969"/><rect fill="#FFFFFF" filter="url(#fobzbo4o72yb6)" height="87.3984" style="stroke: #A80036; stroke-width: 1.0;" width="10" x="236" y="146.4297"/><rect fill="#FFFFFF" filter="url(#fobzbo4o72yb6)" height="29.1328" style="stroke: #A80036; stroke-width: 1.0;" width="10" x="345.5" y="175.5625"/><polygon fill="#A80036" points="83,113.2969,93,117.2969,83,121.2969,87,117.2969" style="stroke: #A80036; stroke-width: 1.0;"/><line style="stroke: #A80036; stroke-width: 1.0;" x1="27" x2="89" y1="117.2969" y2="117.2969"/><text fill="#000000" font-family="sans-serif" font-size="13" lengthAdjust="spacingAndGlyphs" textLength="49" x="34" y="112.3638">DoWork</text><polygon fill="#A80036" points="224,142.4297,234,146.4297,224,150.4297,228,146.4297" style="stroke: #A80036; stroke-width: 1.0;"/><line style="stroke: #A80036; stroke-width: 1.0;" x1="105" x2="230" y1="146.4297" y2="146.4297"/><text fill="#000000" font-family="sans-serif" font-size="13" lengthAdjust="spacingAndGlyphs" textLength="99" x="112" y="141.4966">Create Request</text><polygon fill="#A80036" points="333.5,171.5625,343.5,175.5625,333.5,179.5625,337.5,175.5625" style="stroke: #A80036; stroke-width: 1.0;"/><line style="stroke: #A80036; stroke-width: 1.0;" x1="246" x2="339.5" y1="175.5625" y2="175.5625"/><text fill="#000000" font-family="sans-serif" font-size="13" lengthAdjust="spacingAndGlyphs" textLength="49" x="253" y="170.6294">DoWork</text><polygon fill="#A80036" points="257,200.6953,247,204.6953,257,208.6953,253,204.6953" style="stroke: #A80036; stroke-width: 1.0;"/><line style="stroke: #A80036; stroke-width: 1.0; stroke-dasharray: 2.0,2.0;" x1="251" x2="349.5" y1="204.6953" y2="204.6953"/><text fill="#000000" font-family="sans-serif" font-size="13" lengthAdjust="spacingAndGlyphs" textLength="65" x="263" y="199.7622">WorkDone</text><line style="stroke: #A80036; stroke-width: 2.0;" x1="341.5" x2="359.5" y1="195.6953" y2="213.6953"/><line style="stroke: #A80036; stroke-width: 2.0;" x1="341.5" x2="359.5" y1="213.6953" y2="195.6953"/><polygon fill="#A80036" points="116,229.8281,106,233.8281,116,237.8281,112,233.8281" style="stroke: #A80036; stroke-width: 1.0;"/><line style="stroke: #A80036; stroke-width: 1.0; stroke-dasharray: 2.0,2.0;" x1="110" x2="240" y1="233.8281" y2="233.8281"/><text fill="#000000" font-family="sans-serif" font-size="13" lengthAdjust="spacingAndGlyphs" textLength="107" x="122" y="228.895">Request Created</text><polygon fill="#A80036" points="38,258.9609,28,262.9609,38,266.9609,34,262.9609" style="stroke: #A80036; stroke-width: 1.0;"/><line style="stroke: #A80036; stroke-width: 1.0; stroke-dasharray: 2.0,2.0;" x1="32" x2="99" y1="262.9609" y2="262.9609"/><text fill="#000000" font-family="sans-serif" font-size="13" lengthAdjust="spacingAndGlyphs" textLength="34" x="44" y="258.0278">Done</text><!--
@startuml

actor User
participant "First Class" as A
participant "Second Class" as B
participant "Last Class" as C

User -> A: DoWork
activate A

A -> B: Create Request
activate B

B -> C: DoWork
activate C

C - -> B: WorkDone
destroy C

B - -> A: Request Created
deactivate B

A - -> User: Done
deactivate A

@enduml

PlantUML version 1.2017.15(Mon Jul 03 18:45:34 CEST 2017)
(GPL source distribution)
Java Runtime: Java(TM) SE Runtime Environment
JVM: Java HotSpot(TM) 64-Bit Server VM
Java Version: 1.8.0_191-b12
Operating System: Linux
OS Version: 4.15.0-58-generic
Default Encoding: UTF-8
Language: en
Country: US
--></g></svg>